<?xml version="1.0" encoding="utf-8"?>
<!-- Generator: Adobe Illustrator 22.1.0, SVG Export Plug-In . SVG Version: 6.00 Build 0)  -->
<svg version="1.1" id="Layer_1" xmlns="http://www.w3.org/2000/svg" xmlns:xlink="http://www.w3.org/1999/xlink" x="0px" y="0px"
	 viewBox="0 0 562 153" style="enable-background:new 0 0 562 153;" xml:space="preserve">
<style type="text/css">
	.st0{fill:#FFFFFF;}
</style>
<g id="wJpEV3.tif_2_">
	<g>
		<path class="st0" d="M165.7,39.4c1.3,1.6,3.3,3,4,4.9c8,21,15.9,42,23.8,63c0.2,0.6,0.2,1.3,0.5,2.1c-5,0-9.7,0.1-14.4-0.1
			c-0.8,0-2.1-1.5-2.5-2.4c-1.1-2.4-1.7-5.1-3-7.4c-0.7-1.2-2.7-2.5-4-2.7c-6.2-0.2-12.5-0.1-18.7-0.1c-2.1,0-3.4,1-4,2.8
			c-1,2.5-1.7,5.1-2.9,7.4c-0.5,1.1-1.9,2.4-2.9,2.4c-10.6-0.4-21.2-0.4-31.7-1.8c-10.1-1.5-16.7-8-20.1-17.7
			c-0.8-2.4-2.2-3.6-4.5-4.1C66.7,80.8,57,66.7,56.7,47.7c0-2.7,0.4-5.5,0.6-8.1c20.6,0,41.4,0,62,0c1.5,0.2,2.9,0.5,4.4,0.6
			c6.3,0.5,11.4,3,15.4,7.9c0.8,1,1.5,2.9,1.1,4c-1.3,4.4-3.2,8.7-4.9,13.3c-0.6-1.2-1-2.1-1.3-2.9c-2.9-7-7.8-10.4-15.6-10.2
			c-14.8,0.4-29.6,0.1-44.3,0.1c-1.2,0-2.5,0-3.9,0c1.1,9,5,14.8,12.5,18.7c4.7,2.4,9.7,3.3,14.9,2.9c2.5-0.1,3.8,0.7,3.4,3.4
			c-0.1,0.6,0,1.2,0,1.8c0,8.9,3.9,14.2,12.6,16.3c4.7,1.1,9.6,1.2,14.4,1.7c3.8,0.4,5-0.4,6.3-3.9c2.8-7.6,5.6-15.2,8.5-22.8
			c3.9-10.3,7.9-20.6,11.9-30.9C158.2,39.4,161.9,39.4,165.7,39.4z M167.9,82c-2.4-6.8-4.6-13.1-6.8-19.4c-0.2,0-0.6,0.1-0.8,0.1
			c-2.2,6.3-4.4,12.7-6.5,19.3C158.5,82,162.9,82,167.9,82z"/>
		<path class="st0" d="M378.4,39.4c0.1,0.1,0.1,0.1,0.2,0.2c9.5,3,10.1,3.9,10.1,13.8c0,7.8,0,15.5,0,23.2c0,1.5,0.2,2.8,0.5,5.1
			c2.3-2.9,4.1-5.1,5.9-7.3c2.8-3.4,5.3-6.9,8.2-10.2c1.1-1.2,3.2-2.1,4.7-2.2c4.7-0.2,9.5-0.1,14.9-0.1c-4,5.1-7.5,9.7-11,14.2
			c-1.3,1.7-2.5,3.3-3.9,4.9c-1.9,2.1-1.9,3.9-0.1,6.2c5.2,6.3,10.1,12.7,15.2,19.2c0.6,0.8,1.2,1.7,2.1,2.7c-5.9,0-11.5,0.1-17-0.1
			c-1.2,0-2.4-1.6-3.3-2.7c-4.1-5.2-8.2-10.4-12.4-15.6c-0.8-1.1-1.8-2.3-3.3-3.9c-0.2,2.1-0.5,3.3-0.5,4.6c0,4.9-0.1,9.7,0,14.6
			c0,2.5-1.1,3.5-3.6,3.5c-2.5-0.1-5.1,0-7.6,0c-1.9,0-2.9-1-3-2.9c0-0.7,0-1.3,0-2.1c0-20.3,0-40.5,0-60.8c0-1.5,0.6-3,1-4.5
			C376.4,39.4,377.5,39.4,378.4,39.4z"/>
		<path class="st0" d="M256.3,39.4c1.7,0.6,3.3,1.1,5,1.7c3.2,1.2,5,3.5,5.1,6.9c0.1,3.2,0.2,6.3,0.1,9.5c0,2.3,0.8,3.5,3.4,3.4
			c2.5-0.1,5.2,0,7.8,0c1.7,0,2.5,0.7,2.4,2.5c-0.1,2.8-0.1,5.6,0,8.4c0.2,2.8-1.3,3.4-3.6,3.3s-4.5,0-6.8,0c-1.9,0-2.9,1-2.9,2.9
			c0.1,4.7,0,9.6,0.2,14.3c0.1,3.5,1.7,5,5.3,5c2.4,0,5,0,7.8,0c0,3.3,0.2,6.4-0.1,9.6c-0.1,1-1.5,2.2-2.4,2.4
			c-5.5,1.7-11,1.9-16.6,0.2c-5.5-1.7-8.2-5.9-8.4-12.3c-0.1-11.8-0.2-23.7-0.2-35.4c0-6.2-0.1-12.3,0-18.4c0-1.3,0.6-2.7,1-3.9
			C254.2,39.4,255.3,39.4,256.3,39.4z"/>
		<path class="st0" d="M208,39.4c3,1.9,5.9,4,5.9,8.1s-2.8,7.8-6.7,8.6c-4,0.8-7.9-1.3-9.6-5.2c-1.6-3.8-0.1-8.1,3.5-10.3
			c0.6-0.4,1.3-0.7,1.9-1.2C204.9,39.4,206.5,39.4,208,39.4z"/>
		<path class="st0" d="M466.6,100.8c-10.9,14.9-37.1,11.8-44-2.7c-4.4-9-4.2-18.2,1.1-26.7c5.2-8.2,13.5-11.2,23-10.8
			c15,0.6,22.4,13.2,21.8,26.2c-0.1,2.7-1.8,2.9-3.9,2.9c-8.9,0-17.7,0-26.4,0c-1.1,0-2.2,0-3.4,0c0.2,4,2.2,6.4,5.3,7.9
			c4.9,2.2,9.7,2.1,13.9-1.5c1.9-1.6,3.3-1.7,5.2-0.2C461.6,97.7,464.2,99.2,466.6,100.8z M434.8,79.9c5.3,0,10.4,0.1,15.6,0
			c1.2,0,3.2-0.5,3.3-1.1c0.4-1.2,0-2.9-0.6-4.1c-1.8-3.2-6.8-4.6-10.8-3.5C437.6,72.4,435.2,75.2,434.8,79.9z"/>
		<path class="st0" d="M284.8,66.3c2.5-1.5,4.7-3.3,7.3-4.1c7-2.5,14.3-2.8,21.6-0.7c7,2.1,11.4,7.6,11.6,14.9
			c0.2,10.2,0,20.4,0.1,30.6c0,2.2-1.2,2.7-3,2.7c-7.8-0.2-15.6-0.1-23.4-0.7c-2.9-0.2-5.9-1.3-8.7-2.7c-4.6-2.3-6.1-6.7-5.8-11.5
			c0.4-5.5,2.3-10.4,8-12c5-1.5,10.2-2.2,15.4-2.7c2.4-0.2,3-1.2,2.8-3.3c-0.4-3.6-3.3-6.1-7.4-5.5c-2.8,0.5-5.7,1.6-8.2,2.9
			c-2.1,1.1-3.4,1.1-4.9-0.8C288.7,71.1,286.9,69,284.8,66.3z M310.9,94.7c0-4.4-0.8-5.9-3.3-5.8c-4.9,0.1-8.4,2.5-8.4,5.8
			c-0.1,3.4,3,5.6,8,5.6C310.2,100.3,310.9,99.3,310.9,94.7z"/>
		<path class="st0" d="M328.7,103.4c2.5-3.3,4.9-6.1,6.7-8.4c4.5,1.5,8.6,2.9,12.9,4.1c1,0.2,1.9,0.2,2.9,0.1
			c2.1-0.4,3.5-1.5,3.6-3.6c0.2-2.1-0.8-3.4-2.8-4c-3.5-1.1-7.2-2.2-10.8-3.4c-8-2.8-11.2-8.6-9.3-16.7c0.8-3.5,2.9-6.1,5.8-7.9
			c8.4-5.3,22.2-4.9,30.2,1.1c1.3,1,1.7,2.1,0.7,3.5c-0.2,0.4-0.5,0.6-0.7,0.8c-1.6,1.8-2.8,4.6-4.7,5.1c-1.8,0.5-4.2-1.6-6.5-2.1
			c-2.5-0.5-5.2-0.8-7.8-0.6c-1.1,0.1-2.8,1.9-2.8,3s1.3,2.9,2.5,3.4c4.1,1.6,8.5,2.5,12.6,4.2c5.1,2.1,8,6.1,8.2,11.8
			c0.2,5.7-1.9,10.1-6.8,13c-2.2,1.3-4.7,2.1-7.2,2.7c-9.2,2.4-17.6,0.1-25.3-5.1C329.8,104.3,329.3,103.9,328.7,103.4z"/>
		<path class="st0" d="M233.6,65.6c3.9-1.3,7.5-2.4,11-3.8c2.3-0.8,3.4-0.2,3.3,2.3c-0.1,2.8-0.1,5.6,0,8.4c0.1,1.8-0.6,2.9-2.4,3.2
			c-7.3,1.1-13.2,6.9-12.6,17c0.4,4.7,0,9.5,0,14.3c0,1.9-1,2.7-2.8,2.7c-3.2,0-6.3,0-9.5,0c-1.9,0-2.9-0.8-2.9-2.9
			c0-13.7,0-27.4,0-41.1c0-2.2,0.8-3,3-2.9c2.8,0.1,5.6,0.1,8.4,0C231.6,62.4,233.6,62.4,233.6,65.6z"/>
		<path class="st0" d="M488.1,65.7c3.9-1.3,7.4-2.5,10.8-3.8c2.8-1,3.5-0.6,3.5,2.3c0.1,2.7,0,5.3,0,8c0,1.8-0.7,2.9-2.5,3.4
			c-9.1,2.7-12.3,6.8-12.3,16.3c0,4.6-0.1,9.3,0,13.9c0,2.5-0.8,3.8-3.5,3.6c-2.7-0.1-5.3-0.1-8,0c-2.2,0-3.3-0.8-3.3-3.2
			c0-13.6,0-27.2,0-40.8c0-2.4,1-3.2,3.3-3c2.5,0.1,5.2,0,7.8-0.1C486.1,62.4,487.8,62.8,488.1,65.7z"/>
		<path class="st0" d="M197.7,85.1c0-6.9,0-13.8,0-20.9c0-3.3,0.8-3.9,4-3.3c1.8,0.4,3.8,0.7,5.5,1.3c3.5,1.2,5.7,3.6,5.7,7.5
			c0.1,12.3,0.1,24.6,0.1,36.9c0,1.8-0.8,2.8-2.7,2.8c-3.3,0-6.5,0-9.8,0c-2.3,0-2.8-1.3-2.8-3.3C197.7,99.2,197.7,92.2,197.7,85.1z
			"/>
	</g>
</g>
</svg>
