<?xml version="1.0" encoding="utf-8"?>
<!-- Generator: Adobe Illustrator 22.1.0, SVG Export Plug-In . SVG Version: 6.00 Build 0)  -->
<svg version="1.1" id="Layer_1" xmlns="http://www.w3.org/2000/svg" xmlns:xlink="http://www.w3.org/1999/xlink" x="0px" y="0px"
	 viewBox="0 0 562 153" style="enable-background:new 0 0 562 153;" xml:space="preserve">
<style type="text/css">
	.st0{fill:#FFFFFF;}
</style>
<g>
	<g>
		<path class="st0" d="M246.4,73.6c0.3-6.1,5.8-8.1,11.3-8.1c4.7,0,10.6,1.1,10.6,6.8v12.5c0,2.2,0.2,4.3,0.8,5.3h-6.7
			c-0.2-0.7-0.4-1.5-0.5-2.3c-2.1,2.2-5.1,2.9-8.2,2.9c-4.6,0-8.3-2.2-8.3-7.2c0.1-10.9,16.3-5,16-10.5c0-2.7-1.9-3.2-4.2-3.2
			c-2.6,0-4.1,1-4.3,3.6L246.4,73.6 M261.7,78.4c-1.1,1-3.4,1-5.4,1.4c-2,0.3-3.9,1.1-3.9,3.5s1.9,3.1,4,3.1c5.2,0,5.3-4,5.3-5.5
			V78.4z"/>
		<path class="st0" d="M273,66.2h6.2v3.1h0.1c1.6-2.6,4.2-3.7,7.1-3.7c7.5,0,10.9,6.1,10.9,12.9c0,6.4-3.5,12.4-10.6,12.4
			c-2.9,0-5.6-1.2-7.2-3.6h-0.1v11.4h-6.5V66.2 M291,78.2c0-3.8-1.5-7.7-5.7-7.7c-4.3,0-5.7,3.8-5.7,7.7c0,3.9,1.5,7.6,5.7,7.6
			C289.6,85.9,291,82.3,291,78.2z"/>
		<path class="st0" d="M301.2,66.2h6.2v3.1h0.1c1.6-2.6,4.2-3.7,7.1-3.7c7.5,0,10.9,6.1,10.9,12.9c0,6.4-3.5,12.4-10.6,12.4
			c-2.9,0-5.6-1.2-7.2-3.6h-0.1v11.4H301L301.2,66.2 M319.1,78.2c0-3.8-1.5-7.7-5.7-7.7c-4.3,0-5.7,3.8-5.7,7.7
			c0,3.9,1.5,7.6,5.7,7.6C317.8,85.9,319.1,82.3,319.1,78.2z"/>
		<path class="st0" d="M334.7,79.8c0.2,4.2,2.2,6.1,5.8,6.1c2.7,0,4.7-1.6,5.2-3.1h5.7c-1.8,5.7-5.7,8.2-11.3,8.2
			c-7.5,0-12.3-5.2-12.3-12.7c0-7.2,4.9-12.7,12.3-12.7c8.3,0,12.2,6.8,11.7,14.3L334.7,79.8 M345.5,75.7c-0.6-3.3-2-5.1-5.2-5.1
			c-4.2,0-5.3,3.2-5.4,5.1H345.5z"/>
		<path class="st0" d="M354.9,73.6c0.3-6.1,5.8-8.1,11.3-8.1c4.7,0,10.6,1.1,10.6,6.8v12.5c0,2.2,0.2,4.3,0.8,5.3h-6.7
			c-0.2-0.7-0.4-1.5-0.5-2.3c-2.1,2.2-5.1,2.9-8.2,2.9c-4.6,0-8.3-2.2-8.3-7.2c0.1-10.9,16.3-5,16-10.5c0-2.7-1.9-3.2-4.2-3.2
			c-2.6,0-4.1,1-4.3,3.6L354.9,73.6 M370.2,78.4c-1.1,1-3.4,1-5.4,1.4c-2,0.3-3.9,1.1-3.9,3.5s1.9,3.1,4,3.1c5.2,0,5.3-4,5.3-5.5
			V78.4z"/>
		<path class="st0" d="M381.6,66.2h6.2v4.4h0.1c1.2-3,4.3-5.1,7.7-5.1c0.5,0,1,0.1,1.4,0.2v6.1c-0.6-0.2-1.6-0.2-2.3-0.2
			c-4.8,0-6.5,3.4-6.5,7.7v10.8h-6.6L381.6,66.2"/>
		<polyline class="st0" points="410.4,56.2 422.8,56.2 422.8,61.4 417,61.4 417,93.5 422.8,93.5 422.8,98.8 410.4,98.8 410.4,56.2 
					"/>
		<path class="st0" d="M432.7,67.2h4.7v7.4h0.1c0.7-1.5,2.7-2.4,4.4-2.4c4.8,0,5.2,3.5,5.2,5.6v9.3h-4.7v-8.5c0-1.4-0.5-2.5-2.3-2.5
			c-1.7,0-2.6,1.5-2.6,3.1v7.8h-4.7V67.2"/>
		<path class="st0" d="M454.1,81c0.1,2,1.2,3.2,3.2,3.2c1.2,0,2.2-0.5,2.7-1.6h4.4c-0.9,3.3-3.9,4.7-7.2,4.7c-4.7,0-7.9-2.8-7.9-7.7
			c0-4.4,3.5-7.6,7.7-7.6c5.2,0,7.7,3.9,7.5,8.8L454.1,81 M460,78.3c-0.1-1.7-1.2-2.9-2.8-2.9c-1.7,0-2.7,1.2-3.1,2.9H460z"/>
		<path class="st0" d="M466.9,72.7h4.6v2.5h0.1c0.7-1.8,2.3-2.8,4.3-2.8c0.3,0,0.7,0,1.1,0.1v4.3c-0.7-0.2-1.2-0.2-1.8-0.2
			c-2.3,0-3.6,1.6-3.6,3.4v7.2h-4.7V72.7"/>
		<path class="st0" d="M482.6,81c0.1,2,1.2,3.2,3.2,3.2c1.2,0,2.2-0.5,2.7-1.6h4.4c-0.9,3.3-3.9,4.7-7.2,4.7c-4.7,0-7.9-2.8-7.9-7.7
			c0-4.4,3.5-7.6,7.7-7.6c5.2,0,7.7,3.9,7.5,8.8L482.6,81 M488.5,78.3c-0.1-1.7-1.2-2.9-2.8-2.9c-1.7,0-2.7,1.2-3.1,2.9H488.5z"/>
		<polyline class="st0" points="512.9,98.8 500.8,98.8 500.8,93.5 506.4,93.5 506.4,61.4 500.8,61.4 500.8,56.2 512.9,56.2 
			512.9,98.8 		"/>
	</g>
	<g>
		<path class="st0" d="M177.3,90.6c0-1.2,0-2.3,0-3.4c-0.2,0.1-0.3,0.1-0.3,0.2c-3.7,4.5-9.8,5.4-14.7,2.2c-4.5-3-6.6-8.7-5.3-14.7
			c0.9-4.5,3.5-7.8,7.9-9.5c4.7-1.8,9-0.6,12.4,3.3c0-4.6,0-9.1,0-13.7c1.8,0,3.5,0,5.2,0c0,11.9,0,23.6,0,35.6
			C180.9,90.6,179.2,90.6,177.3,90.6z M177.7,77.4c-0.1-0.5-0.2-1.6-0.5-2.6c-1.5-5-7.5-7-11.8-4c-3.1,2.3-3.9,5.5-3.2,9.3
			c1,5.3,6.7,8.1,11.4,5.4C176.5,84,177.6,81.3,177.7,77.4z"/>
		<path class="st0" d="M52.4,54.9c7.3,0,14.7,0,22,0c0,1.6,0,3.2,0,4.9c-5.5,0-11,0-16.5,0c0,3.6,0,7.1,0,10.9c4.4,0,8.9,0,13.5,0
			c0,1.7,0,3.2,0,4.9c-4.4,0-9,0-13.5,0c0,5.1,0,10.1,0,15c-1.9,0-3.6,0-5.5,0C52.4,78.7,52.4,66.9,52.4,54.9z"/>
		<path class="st0" d="M101.9,78c0,7.6-5.7,13.3-13.6,13.3c-7.9,0-13.5-5.6-13.6-13.4c-0.1-9.1,7.3-13.5,13.6-13.4
			C96.2,64.5,101.9,70.3,101.9,78z M80.1,77.9c0,4.9,3.4,8.6,8.3,8.6c4.7,0,8.3-3.6,8.3-8.6c0-4.8-3.5-8.6-8.2-8.6
			C83.7,69.4,80.1,73,80.1,77.9z"/>
		<path class="st0" d="M105.1,65.4c1.7,0,3.4,0,5.2,0c0,0.4,0,0.8,0,1.2c0,4.6,0,9.2,0,13.8c0,1.1,0.1,2.2,0.5,3.2
			c1.3,3.1,5.9,4,8.9,1.7c2-1.6,2.8-3.7,2.8-6.2c0-4.1,0-8.3,0-12.4c0-0.4,0-0.8,0-1.3c1.8,0,3.5,0,5.2,0c0,8.5,0,16.8,0,25.3
			c-1.7,0-3.4,0-5.2,0c0-1.2,0-2.3,0-3.7c-0.5,0.6-0.7,0.9-1,1.3c-3.7,4.7-12.1,4.3-15.1-0.8c-0.8-1.4-1.3-3.2-1.4-4.8
			c-0.2-5.5-0.1-11.1-0.1-16.6C105,65.7,105,65.6,105.1,65.4z"/>
		<path class="st0" d="M153.7,90.6c-1.6,0-3.3,0-5,0c0-0.4-0.1-0.8-0.1-1.2c0-4.6,0-9.3,0-13.9c0-3.5-1.3-5.4-4.1-6
			c-3.1-0.6-6.1,0.9-7.2,3.9c-0.5,1.4-0.8,2.9-0.8,4.4c-0.1,4,0,8.1,0,12.1c0,0.2,0,0.4-0.1,0.6c-1.7,0-3.3,0-5,0
			c0-8.4,0-16.8,0-25.3c1.7,0,3.3,0,5.1,0c0,1.2,0,2.4,0,3.6c1.3-1.1,2.3-2.2,3.6-3c4-2.5,9.6-1.6,12.3,1.9c1,1.3,1.5,2.7,1.6,4.3
			c0.1,6,0.1,12.1,0.1,18.1C153.8,90.3,153.8,90.4,153.7,90.6z"/>
	</g>
	<path class="st0" d="M219.4,76.5c2.3,2.2,4.3,4.3,6.4,6.3c-1,0.9-1.8,1.7-2.7,2.5c-1.9-2-4-4-6.1-6.2c-2.2,2.2-4.1,4.3-6.2,6.4
		c-0.9-1-1.7-1.9-2.6-2.8c1.9-1.9,4-3.8,6.1-5.8c-2.3-2.2-4.3-4.2-6.4-6.2c1.1-1,1.9-1.8,2.8-2.7c1.9,2,4,4.1,6.1,6.3
		c2.1-2.2,4.1-4.3,6.1-6.4c0.9,1,1.7,1.9,2.5,2.8C223.6,72.5,221.5,74.4,219.4,76.5z"/>
</g>
</svg>
