<?xml version="1.0" encoding="utf-8"?>
<!-- Generator: Adobe Illustrator 22.1.0, SVG Export Plug-In . SVG Version: 6.00 Build 0)  -->
<svg version="1.1" id="Layer_1" xmlns="http://www.w3.org/2000/svg" xmlns:xlink="http://www.w3.org/1999/xlink" x="0px" y="0px"
	 viewBox="0 0 562 153" style="enable-background:new 0 0 562 153;" xml:space="preserve">
<style type="text/css">
	.st0{fill:#FFFFFF;}
</style>
<g id="uzJJXk_1_">
	<g>
		<path class="st0" d="M494.8,117.6c-3.4,0-6.7,0-10.1,0c-1.3,0-1.6-0.3-1.6-1.6c0-8.1,0-16.2,0-24.4c0-0.6,0-1,0-1.7
			c-11.1,0-22,0-33.3,0c0,9.2,0,18.3,0,27.6c-4.1,0-7.8,0-11.7,0c0-22.7,0-45.6,0-68.4c3.8,0,7.7,0,11.6,0c0,9.7,0,19.5,0,29.3
			c11.1,0,22.3,0,33.4,0c0-1.7,0-3.5,0-5.2c0-7.5,0-15,0-22.5c0-1.4,0.3-1.9,1.9-1.9c3.2,0.1,6.6,0,10,0
			C494.8,71.9,494.8,94.8,494.8,117.6z"/>
		<path class="st0" d="M116.5,34.6c1.5,2.2,3.1,4.3,4.5,6.6c2,3.4,1.5,6.5-1.4,8.9c-0.2,0.2-0.5,0.5-0.7,0.5
			c-2.7,0.3-2.3,2.2-2.3,4.1c0.1,2.9,0,5.7,0,8.6c0,0.6,0.1,1.2,0.1,1.9c2.3-1.3,2.4-1.5,1.6-3.7c-1.2-3.1,0.3-7,3.6-8
			c2.9-0.9,5.9-1.3,8.9-1.9c1.2-0.2,1.7,0.6,1.6,1.4c-0.6,3-0.9,6.1-2,9c-1.2,3.5-5.3,4.9-8.6,3.2c-0.8-0.5-1.3-0.3-1.9,0.3
			c-0.9,1-2.1,2.1-3,3.1c-0.2,0.2-0.5,0.7-0.5,1c0,3.8,0,7.7,0,11.4c0,0.1,0.1,0.2,0.2,0.6c1.2-0.9,2.1-1.6,1.4-3.5
			c-0.9-2.8,0.6-6.3,3.5-7.2c2.9-0.9,6-1.4,9-2c0.9-0.2,1.9,0.3,1.7,1.4c-0.5,3-0.9,6.1-2,9c-1.5,4.1-5.8,5.2-9.5,2.9
			c-0.2-0.1-0.5-0.3-0.7-0.5c-1,1-2.1,2.1-3.1,3.1c-0.3,0.3-0.6,0.8-0.6,1.3c0,4.5,0,9,0,13.7c2.1-1,2.6-1.7,1.9-3.6
			c-1.2-3,0.7-7.3,3.7-8c2.8-0.6,5.6-1.3,8.3-1.7c1.5-0.2,2.2,0.5,1.9,2c-0.3,2.1-0.7,4.3-1.2,6.4c-1.2,5.5-5.5,7.4-10.7,4.8
			c-1.2,1.3-2.4,2.6-3.6,3.9c-0.2,0.2-0.3,0.8-0.3,1.2c0,3.4,0,6.7,0,10.3c10.6,0,21.1,0,31.8,0c0-2.8,0.1-5.6-0.1-8.2
			c-0.1-0.9-1.2-1.7-1.9-2.7c-0.8-1-1.6-0.8-2.8-0.3c-2.6,0.9-5.6-0.3-6.5-3c-0.8-2.3-1.2-4.9-1.6-7.3c-0.2-1.3,0.6-2,1.9-1.7
			c2.3,0.5,4.8,0.8,7,1.5c2.7,0.8,4.1,4.3,3,7c-0.5,1.2-0.5,1.2,0.9,2.2c0-3.7,0.2-7.3-0.1-10.8c-0.1-1.2-1.6-2.1-2.6-3.2
			c-2.2,1.5-4.4,1.9-6.5,0.5c-0.9-0.7-1.9-1.9-2.2-2.9c-0.7-2.2-1-4.5-1.4-6.8c-0.2-1.3,0.7-1.9,1.7-1.6c2.4,0.5,4.9,0.9,7.3,1.6
			c2.2,0.7,3.5,3.7,3,6.3c-0.1,0.6,0,1.3,0,1.9c0.2,0,0.5,0,0.6,0c0-0.5,0.1-0.9,0.1-1.3c0-1.6-0.2-3.4,0-5c0.6-3-1.3-4.6-3.2-6.3
			c-2.2,0.9-4.5,1.3-6.5-0.5c-0.8-0.7-1.5-1.9-1.9-2.9c-0.6-2.1-0.8-4.3-1.2-6.4c-0.1-1,0.3-1.9,1.5-1.6c2.8,0.6,5.6,1,8.2,2
			c2.1,0.8,2.9,3.9,2.1,6.3c-0.3,1-0.5,1.9,0.9,2.4c0-3.2,0-6.5,0-9.6c0-0.3-0.5-0.8-0.8-1c-3.5-1.9-4.5-4.6-2.7-8
			c0.9-1.9,2.3-3.6,3.5-5.2c0.8-1,1.7-1,2.6,0c1.4,1.9,2.8,3.8,3.8,5.8c1.4,2.7,0.3,5.7-2.4,7.1c-1.2,0.6-1.5,1.4-1.4,2.6
			c0.1,2.8,0,5.6,0,8.3c0.2,0,0.5,0.1,0.6,0.1c0.1-0.7,0.5-1.5,0.3-2.1c-1-3.1,0.5-6.7,3.7-7.3c2-0.3,4.1-0.9,6-1.3
			c1-0.1,2.2,0,2,1.3c-0.5,2.8-0.8,5.8-2,8.3c-1.3,2.8-4.5,3.2-7.5,1.6c-0.8,0.9-1.7,1.7-2.6,2.8c-0.3,0.3-0.6,0.8-0.6,1.3
			c0,2.8,0,5.7,0.3,8.7c0.2-0.5,0.6-0.9,0.6-1.3c-1.3-5.1,1.6-7,6-8c1.4-0.3,2.8-0.3,4.2-0.5c1.2-0.1,1.9,0.5,1.6,1.5
			c-0.6,2.8-1,5.7-2.1,8.3c-1.2,2.7-4.9,3-7.7,1.2c-2.4,1.3-3.2,3.4-3,6.1c0.2,2.6,0,5.1,0,8c0.6-0.7,0.9-1,1.3-1.4
			c-1.6-3.7-0.5-7.5,4.1-8.5c1.9-0.5,3.7-0.7,5.6-1c1.3-0.2,2.1,0.5,1.9,1.6c-0.5,2.6-0.9,5.2-1.7,7.5c-0.9,2.4-3.7,3.4-6.3,2.7
			c-1.7-0.5-4.6,1.5-4.6,3.4c-0.1,2.3,0,4.8,0,7.1c0,0.9,0.3,1.2,1.2,1.2c3.7,0,7.4,0,11.1-0.1c0.9,0,2.1-0.1,2.1,1.2
			c0,1.4-1.2,1.3-2.1,1.3c-21.3,0-42.7,0-64,0c-0.5,0-0.9,0.1-1.3,0c-0.5-0.2-0.9-0.7-1.4-1.2c0.5-0.5,0.8-1.2,1.3-1.2
			c2.2-0.1,4.4-0.1,6.5-0.1c3.2,0,6.6,0,10.1,0c0-3.1,0-6.1,0-9.2c0-1.9-2.2-5.3-3.9-6c-0.2-0.1-0.7,0-0.9,0.1
			c-4.9,1.7-8.2,0.1-9.6-5c-0.6-2.2-0.8-4.5-1.2-6.7c-0.2-1.4,0.3-2.2,1.9-2c2.8,0.6,5.8,0.9,8.5,1.9c4.2,1.5,4.5,4.9,3.6,7.9
			c-0.6,2.1,0.3,2.7,1.7,3.9c0-2.4,0-4.6,0-6.7c0-2.4,0.1-4.8,0-7.2c0-0.7-0.6-1.4-1-2c-0.8-0.8-1.7-1.6-2.7-2.4
			c-2.9,2-5.8,2.3-8.5-0.1c-0.9-0.9-1.7-2.2-2.1-3.5c-0.7-2.4-1-5-1.4-7.5c-0.2-1.3,0.5-2,1.7-1.7c2.8,0.5,5.6,0.8,8.1,1.6
			c3.5,1,5.1,4.1,4.2,7.9c-0.3,1.6,0.5,2.2,1.5,3.2c0-4.4,0.3-8.5-0.2-12.4c-0.2-1.5-2.3-3-3.9-4.1c-0.5-0.3-1.9,0.5-2.8,0.6
			c-2.4,0.6-5.1-0.7-6.3-2.9c-1.7-3.1-2-6.6-2.3-10c0-0.5,0.7-1.3,1-1.3c3.6,0,7.1,0.5,10.3,2.2c2.6,1.4,3.8,4.6,2.6,7.4
			c-0.9,2.1,0.2,2.8,1.6,4.1c0-2.8,0-5.1,0-7.5c0-1.7-0.1-3.5,0-5.2c0-0.9-0.3-1.4-1.2-1.7c-3.5-1.3-5.2-5.2-3.6-8.5
			c1.5-2.8,3.5-5.3,5.3-8C115.5,34.6,116,34.6,116.5,34.6z M101.5,53.9c-0.1,0.1-0.3,0.2-0.5,0.3c0.6,2.3,1.2,4.8,2,7.1
			c0.5,1.5,2.6,2.3,4.2,2c1.7-0.3,3.1-1.9,3.2-3.5c0.1-2.3-0.6-3.6-2.4-4.2C106,55.1,103.8,54.5,101.5,53.9z M130.2,53.8
			c-2.7,0.7-4.9,1.2-7,1.9c-1.9,0.6-2.9,2.4-2.6,4.3c0.3,1.9,2.1,3.4,3.9,3.5c2,0.1,3.7-1.2,4.1-3C129.1,58.5,129.6,56.4,130.2,53.8
			z M101.7,71.6c-0.2,0.1-0.3,0.3-0.6,0.5c0.6,2.2,1,4.4,1.7,6.5c0.7,2,2.3,2.8,4.4,2.4c1.6-0.2,3.1-1.7,3.2-3.4
			c0.2-2.3-0.3-3.6-2.4-4.3C106,72.5,103.8,72,101.7,71.6z M130.2,71.3c-2.7,0.7-5,1.3-7.2,2c-1.9,0.7-2.8,2.7-2.4,4.4
			c0.3,1.6,2.2,3.1,4.1,3.2c2.1,0,3.6-1,4.1-3C129.1,76,129.6,74,130.2,71.3z M115.6,37.5c-0.8,1.2-1.5,2.1-2.1,3
			c-0.6,0.9-1.2,1.9-1.6,2.9c-1,2.2,0.1,4.6,2.3,5.3c1.9,0.6,3.4,0.2,4.6-1.3c1-1.3,1-3.4,0-5.2C117.9,40.6,116.7,39.1,115.6,37.5z
			 M101.4,89c0.1,3,0.5,5.5,1.7,7.7c0.9,1.5,2.4,2.2,4.3,1.7c1.4-0.3,2.9-1.7,3.1-3.1c0.3-2-0.2-3.6-2.1-4.3
			C106.3,90.2,104,89.7,101.4,89z M130.2,89c-2.7,0.7-5,1.3-7.2,2c-1.9,0.6-2.7,2.6-2.3,4.3c0.5,1.9,2,3.1,3.9,3.2
			c2.2,0.1,3.6-0.8,4.1-2.9C129.1,93.6,129.6,91.6,130.2,89z M161.2,95c-0.2-0.1-0.3-0.2-0.6-0.3c-1.6,0.5-3.2,0.8-4.8,1.3
			c-1.4,0.5-2,1.6-1.9,3c0.1,1.5,1.2,2.4,2.7,2.8c1.4,0.2,2.6-0.2,3-1.4C160.3,98.5,160.7,96.7,161.2,95z M149.7,52.7
			c-0.9,1.3-1.7,2.3-2.3,3.4c-0.5,0.9-0.9,2-0.8,2.9c0.2,1.7,2.3,2.9,3.8,2.4c2-0.7,2.8-2.6,1.9-4.4
			C151.6,55.5,150.7,54.2,149.7,52.7z M160.9,66c-1.9,0.5-3.4,0.7-5,1.2c-1.4,0.5-2.1,1.5-2.1,2.9c0,1.3,0.7,2.3,2,2.8
			c1.3,0.6,2.6,0.2,3.4-0.7C160.7,70.5,160.8,68.3,160.9,66z M138.2,66c0.5,1.9,0.7,3.4,1,4.9c0.5,1.6,1.6,2.3,3.2,2.3
			c1.4,0,2.8-1.5,2.9-2.9s-0.8-2.7-2.4-3.1C141.6,66.7,140,66.5,138.2,66z M138.7,80.3c-0.1,0.1-0.3,0.3-0.5,0.5
			c0.5,1.7,0.8,3.5,1.4,5c0.6,1.4,2,1.7,3.4,1.5c1.3-0.2,2.3-1.2,2.3-2.6c-0.1-1-0.6-2.6-1.4-3C142.3,81,140.4,80.7,138.7,80.3z
			 M161.2,80.7c-0.1-0.1-0.3-0.2-0.5-0.3c-1.6,0.5-3.4,0.8-5,1.4c-1.3,0.5-2.1,1.6-1.6,2.9c0.3,1,1.3,2.2,2.2,2.7
			c1.3,0.6,2.9,0.2,3.5-1.3C160.3,84.3,160.7,82.5,161.2,80.7z M138.1,94.4c0.6,2.1,0.9,3.7,1.3,5.3c0.3,1.5,1.6,2,2.9,2
			c1.4,0.1,2.9-1.3,3-2.8c0.1-1.3-0.5-2.4-1.7-2.9C142,95.5,140.3,95,138.1,94.4z"/>
		<path class="st0" d="M79.3,34.6c3.4,3,6.7,6.1,10.2,9.2c0.9,0.8,1.3,1.5,1.3,2.7c0,8.7,0,17.5,0,26.2c0,1.5-0.5,2.1-2,2
			c-2.9-0.1-5.9,0-8.9,0c0,0.6-0.1,0.9-0.1,1.3c-0.2,1.5,0.2,2.3,2,2.1c1.2-0.1,1.6,0.5,1.6,1.6c0.6,9.5,1.2,19.1,1.7,28.6
			c0.2,2.9,0.5,5.7,0.6,8.6c0,0.8-0.2,1.7-0.3,2.7c-4.6,0-9.2,0-13.8,0c-0.1-0.6-0.2-1-0.1-1.6c0.1-2.4,0.3-4.9,0.5-7.3
			c0.3-5.5,0.7-10.9,1-16.4c0.2-4.2,0.5-8.5,0.7-12.6c0.2-3.2,0.3-3.2,3.2-3.4c0.1,0,0.2-0.1,0.2-0.2c0-1,0-2.1,0-3.1
			c-3.5,0-6.7,0-10,0c0-10,0-19.9,0-29.9c3.8-3.4,7.7-6.7,11.5-10.1C78.8,34.6,79.1,34.6,79.3,34.6z M77.2,72c0-0.7,0-1.3,0-1.9
			c-0.8,0-1.4,0.1-2,0c-0.5-0.1-0.9-0.8-0.9-1.2c0-0.3,0.6-1,0.9-1c2.2-0.1,4.4-0.1,6.5,0c0.3,0,0.9,0.7,0.9,1.2
			c0,0.3-0.5,0.9-0.9,1.2c-0.2,0.2-0.8,0-1.2,0.1c-0.3,0.1-0.7,0.6-0.9,0.8c0.3,0.3,0.7,0.9,1,0.9c2.6,0.1,5,0,7.7,0
			c0-0.8,0-1.5,0-2.1c0-6.5-0.1-13,0.1-19.5c0.1-3-0.3-5.3-3-7.1c-2.3-1.6-4.4-3.8-6.5-5.7c-2.9,2.6-5.6,4.9-8.2,7.4
			c-0.6,0.6-1,1.6-1,2.4c-0.1,7.7,0,15.3,0,23c0,0.6,0,1,0.1,1.6C72.2,72,74.6,72,77.2,72z M74.3,110c2.9,0,5.6,0,8.3,0
			c-0.6-9.9-1.3-19.6-1.9-29.5c-1.5,0-2.9,0-4.6,0C75.6,90.4,75,100.1,74.3,110z M83,112.6c-3,0-5.8,0-8.7,0
			c-0.1,1.5-0.2,2.9-0.5,4.3c3.2,0,6.1,0,9.2,0C83,115.4,83,114,83,112.6z"/>
		<path class="st0" d="M317.6,117.6c-4.1,0-8,0-11.9-0.1c-0.5,0-1.2-0.8-1.4-1.4c-1.9-4.1-3.7-8.2-5.5-12.4
			c-0.6-1.3-1.3-1.7-2.7-1.7c-10.1,0.1-20.2,0-30.3,0c-1,0-1.6,0.2-2.1,1.4c-1.9,4.4-3.7,8.7-5.7,13c-0.2,0.6-1,1.2-1.5,1.2
			c-3.8,0.1-7.7,0-11.7,0c0.9-2.1,1.7-3.9,2.6-5.8c3.9-9,7.9-18.1,11.9-27.1c5.1-11.6,10.2-23.1,15.3-34.6c0.2-0.5,0.9-1,1.4-1
			c3.5-0.1,7.1-0.1,10.6,0c0.5,0,1.2,0.5,1.4,0.9c4.9,11.1,9.7,22.3,14.6,33.4c4.8,10.9,9.6,21.8,14.4,32.6
			C317.1,116.4,317.4,116.9,317.6,117.6z M269.3,90.9c8.1,0,15.9,0,23.9,0c-3.9-9-7.9-17.9-11.9-27.1
			C277.1,73.1,273.3,81.9,269.3,90.9z"/>
		<path class="st0" d="M207.3,97.8c0,6.7,0,13.2,0,19.8c-4.1,0-7.8,0-11.9,0c0-1.2,0-2.1,0-3.1c0-21.3,0-42.6,0-63.9
			c0-1.2,0.2-1.6,1.5-1.5c7.9,0,15.7-0.1,23.5,0.1c5.6,0.1,11.2,0.7,16.5,3c6.7,3,10.4,8.2,11.6,15.3c0.8,5.2,0.8,10.4-0.8,15.5
			c-2,6.4-6.4,10.3-12.6,12.5c-4.8,1.6-9.6,2.2-14.6,2.3C216.1,97.9,211.8,97.8,207.3,97.8z M207.3,86.8c5.2,0,10.1,0.1,15.1,0
			c1.9,0,3.7-0.3,5.5-0.7c2.7-0.7,5.1-1.9,6.5-4.3c2.4-4.4,2.9-9.2,1.5-13.9c-1.3-4.3-4.6-6.4-8.7-6.8c-5.7-0.7-11.5-0.6-17.2-0.8
			c-0.9,0-1.7,0-2.7,0C207.3,69,207.3,77.8,207.3,86.8z"/>
		<path class="st0" d="M429.6,60.1c-2.6,2.8-4.9,5.2-7.2,7.7c-0.8,0.8-1.2,0.2-1.7-0.2c-3.2-2.8-6.7-5.5-11.1-6.5
			c-11.7-2.7-24.2,0.8-29.6,13c-3.6,8.1-2.1,18.7,5,25.4c7.5,7.3,16.4,8.8,25.9,5.2c3.1-1.2,5.9-3.6,8.7-5.6c0.9-0.7,1.4-0.9,2.3,0
			c2.1,2.2,4.3,4.3,6.8,6.8c-2.6,2.1-4.8,4.4-7.3,6.1c-8,5.2-16.8,6.6-26.2,5.2c-7.4-1.2-13.9-4.2-19.4-9.4
			c-5.2-5-8.2-11.1-9.5-18.3c-1-6.4-0.6-12.6,1.6-18.6c2.6-6.8,7.1-12.2,13.1-16.2c5.7-3.7,11.9-5.5,18.7-5.9
			c7.5-0.5,14.7,0.8,21.2,4.6C424,55.3,426.6,57.8,429.6,60.1z"/>
		<path class="st0" d="M343.4,60c0,1.3,0,2.2,0,3.1c0,17.6,0,35.1,0,52.8c0,1.3-0.2,1.9-1.6,1.7c-3-0.1-5.9-0.1-8.9,0
			c-1.2,0-1.4-0.3-1.4-1.4c0-17.4,0-34.8,0-52.1c0-1.3,0-2.6,0-3.9c-7,0-13.7,0-20.5,0c0-3.7,0-7.3,0-11c17.5,0,35.1,0,52.9,0
			c0,3.6,0,7.1,0,10.9C357.2,60,350.4,60,343.4,60z"/>
	</g>
</g>
</svg>
