<?xml version="1.0" encoding="utf-8"?>
<!-- Generator: Adobe Illustrator 22.1.0, SVG Export Plug-In . SVG Version: 6.00 Build 0)  -->
<svg version="1.1" id="Layer_1" xmlns="http://www.w3.org/2000/svg" xmlns:xlink="http://www.w3.org/1999/xlink" x="0px" y="0px"
	 viewBox="0 0 562 153" style="enable-background:new 0 0 562 153;" xml:space="preserve">
<style type="text/css">
	.st0{fill:#FFFFFF;}
</style>
<g>
	<path class="st0" d="M359.2-2.2l0.8,0.1C359.8-2.1,359.5-2.2,359.2-2.2z"/>
	<path class="st0" d="M223.4,72.2c-2-0.2-3.4,0.6-4.2,2.4c-0.8,1.8-0.7,3.7-0.2,5.6c0.4,1.6,1.4,2.8,3.1,3.1
		c1.6,0.3,3.2-0.1,4.1-1.6c0.6-1.1,1.1-2,1.1-3.3c0-1.3-0.2-2.2-0.4-3C226.3,73.7,224.9,72.4,223.4,72.2z"/>
	<path class="st0" d="M349.6,58.2c-5.8-5.6-12.3-10.5-19-15c-5.2-3.5-10.7-6.9-16.1-10c-5.4-3.1-10.9-6-16.3-8.8
		c-6-3.1-12.2-5.7-18.4-8.2c-6.8-2.7-13.7-4.9-20.8-6.4c-5.7-1.2-11.4-1.7-17.2-1.1c-2.7,0.3-5.1,1.1-7.5,2.1
		c-4.7,2-8.7,4.8-12.3,8.4c-3.1,3.1-5.6,6.5-7.8,10.3c-2.7,4.6-4.7,9.4-6.2,14.4c-0.8,2.4-1.4,5-1.9,7.5c-1.4,6.3-2,12.6-2.4,19.1
		c0,0.1-0.6,7.9,0.5,20.5c0.5,5.4,1.4,10.7,2.8,15.8c0.9,3.5,2,7,3.4,10.4c2.4,6,5.7,11.5,10.1,16.4c2.6,2.9,5.5,5.4,8.8,7.4
		c4.4,2.7,9.1,4.4,14.3,4.8c5.5,0.4,10.9-0.3,16.3-1.5c4.2-0.9,8.3-2.2,12.5-3.5c3.7-1.2,7.2-2.7,10.8-4.1c3.4-1.4,6.8-2.8,10.1-4.4
		c3.5-1.6,7-3.4,10.4-5.2c3.7-1.9,7.3-3.9,10.9-6c5.1-3,10.2-6.1,15.1-9.4c4.6-3.1,9.1-6.4,13.5-9.8c4.7-3.7,21.6-19.2,21.6-25.1
		C364.6,70.9,352.5,61.1,349.6,58.2z M230,83.6c-2.5,3.8-7.5,3.7-9.8,1.9c-0.4-0.4-0.8-0.7-1.4-1.3c0,0.5-0.1,0.7-0.1,1
		c0,2.1,0,4.2,0,6.2c0,0.7-0.3,0.9-0.9,0.9c-0.9-0.1-1.7,0-2.6,0c-1.1,0-1.1,0-1.1-1.1c0-6.3,0-12.6,0-18.9c0-0.7,0-1.5,0-2.2
		c0-0.6,0.2-0.8,0.7-0.7c1,0,1.9,0,2.9,0c0.5,0,0.7,0.2,0.7,0.7c0,0.4,0,0.8,0.1,1.4c0.8-0.6,1.4-1.4,2.2-1.7
		c2.4-1.3,6.7-1.2,9.2,2.3C232,74.9,232,80.5,230,83.6z M237.3,86.3c-1.1-0.1-2.3,0-3.6,0c0-0.4,0-0.7,0-1.1c0-7.2,0-14.3,0-21.5
		c0-0.8,0.2-1,1-1c0.9,0.1,1.9,0.1,2.8,0c0.6,0,0.9,0.3,0.9,0.9c0,2.7,0,5.4,0,8c0,4.5,0,9,0,13.6C238.4,86.1,238.1,86.3,237.3,86.3
		z M252.9,86.2c-0.2,0-0.4-0.4-0.5-0.6c-0.1-0.2-0.1-0.5-0.2-0.9c-0.4,0.2-0.6,0.4-0.8,0.5c-2.2,1.7-6.8,1.9-8.8,0.4
		c-1.8-1.4-2.2-3.2-1.8-5.3c0.4-1.9,1.7-2.9,3.4-3.3c1.3-0.4,2.7-0.5,4-0.7c0.8-0.1,1.6-0.3,2.4-0.4c0.9-0.2,1.4-0.9,1.5-1.7
		c0.1-1.1-0.5-1.9-1.4-2.2c-1.2-0.5-2.5-0.5-3.7,0.1c-0.5,0.3-0.9,0.9-1.2,1.5c-0.2,0.5-0.4,0.7-0.9,0.7c-1,0-2.1,0-3.1,0
		c-0.6,0-0.7-0.3-0.6-0.9c0.6-2.3,2.1-3.7,4.3-4.2c2.7-0.7,5.4-0.7,8.2,0.2c1.9,0.6,2.9,2.1,2.9,4c0,2.8,0,5.7,0,8.5
		c0,1.4,0.1,2.7,0.3,4.2C255.6,86.3,254.3,86.3,252.9,86.2z M273.3,72.9c-1.4,3.7-2.7,7.5-4.2,11.2c-0.6,1.5-1.1,3-1.7,4.5
		c-0.9,2.4-2.5,3.5-4.9,3.7c-0.9,0.1-1.9-0.1-2.9-0.1c-0.5,0-0.7-0.2-0.6-0.7c0-0.7,0-1.5,0-2.3c0-0.5,0.1-0.7,0.7-0.6
		c0.4,0.1,0.8,0.1,1.1,0.1c2.2,0.2,3.1-1.6,2.5-3.4c-0.6-1.6-1.1-3.2-1.7-4.7c-1.3-3.4-2.6-6.8-3.9-10.2c-0.1-0.3-0.1-0.6-0.3-1
		c1.6,0,3,0,4.5,0c0.1,0,0.4,0.4,0.4,0.6c1.1,3.4,2.2,6.7,3.3,10.1c0.1,0.3,0.3,0.6,0.4,0.9c0.1,0,0.1,0,0.3,0
		c0.2-0.7,0.5-1.4,0.7-2.1c0.9-2.9,1.9-5.9,2.8-8.8c0.1-0.2,0.3-0.6,0.5-0.6c1.4-0.1,2.8,0,4.4,0C274.2,70.6,273.8,71.7,273.3,72.9z
		 M279.4,86.3c-0.8-0.1-1.6-0.1-2.4,0c-0.8,0.1-1.1-0.2-1.1-1.1c0.1-4.2,0-8.5,0-12.7l0,0c0-4.2,0-8.5,0-12.7c0-1.2,0-1.2,1.2-1.2
		c0.8,0,1.6,0,2.4,0c0.6,0,0.9,0.2,0.9,0.9c0,2.4,0,4.9,0,7.3c0,6.2,0,12.4,0,18.6C280.4,86.1,280.2,86.3,279.4,86.3z M283.7,58.7
		c2.5,1.5,4.9,2.9,7.5,4.4c-2.6,1.5-4.9,2.9-7.5,4.4C283.7,64.6,283.7,61.8,283.7,58.7z M288.1,82.3c0,1.1,0,2.2,0,3.2
		c0,0.6-0.1,0.8-0.8,0.8c-1,0-2,0-3,0c-0.6,0-0.7-0.2-0.7-0.8c0-2.6,0-5.2,0-7.7s0-5.1,0-7.6c0-0.7,0.2-0.9,0.9-0.9
		c0.9,0.1,1.9,0.1,2.7,0c0.8-0.1,0.9,0.4,0.9,1C288,74.3,288.1,78.3,288.1,82.3z M303.5,85.5c-1.6,1.1-3.4,1.1-5.2,1.2
		c-2.2-0.1-4.3-0.2-6-1.7c-1.1-0.9-1.7-2-1.9-3.4c-0.1-0.5,0.1-0.7,0.6-0.7c1,0,1.9,0,2.9,0.1c0.2,0,0.6,0.3,0.6,0.5
		c0.4,1.5,1.4,2.1,2.8,2.2c0.9,0.1,1.7-0.1,2.6-0.2c0.9-0.2,1.5-1.1,1.6-1.9c0-0.7-0.6-1.6-1.6-1.9c-1.5-0.4-3-0.7-4.4-1.1
		c-1.1-0.4-2.3-0.7-3.2-1.3c-2.4-1.6-2.1-5.5,0.6-7.2c2-1.3,4.3-1.2,6.6-1.1c2,0.1,3.8,0.6,5,2.4c0.4,0.6,0.6,1.4,0.9,2.2
		c0.1,0.4,0,0.6-0.5,0.6c-1.1,0-2.2,0-3.3,0c-0.1,0-0.4-0.2-0.5-0.4c-0.3-1.6-1.6-1.8-2.9-1.9c-0.6-0.1-1.2,0.1-1.8,0.2
		c-0.7,0.1-1.2,0.6-1.2,1.4c-0.1,0.8,0.4,1.3,1.1,1.5c1,0.4,2.1,0.7,3.2,1c1.1,0.3,2.4,0.5,3.4,0.9c1.6,0.6,2.9,1.6,3,3.5
		C306.2,82.5,305.4,84.3,303.5,85.5z M316.4,83c0.3,0,0.6,0,1.1,0c0,1,0,1.9,0,2.9c0,0.1-0.2,0.4-0.4,0.4c-2,0.2-4.1,0.4-6-0.6
		c-1.1-0.6-1.6-1.6-1.6-2.9c0-3.1,0-6.2,0-9.2c0-1.4,0-1.4-1.4-1.4c-1.7,0-1.5,0.3-1.6-1.6c0-0.2,0-0.5,0-0.7c0-0.4,0.2-0.6,0.6-0.6
		c0.5,0,1,0,1.5,0c0.6,0,0.8-0.2,0.8-0.8c0-1.2,0-2.4,0-3.6c0-0.5,0.1-0.7,0.6-0.7c1,0,2.1,0,3.1,0c0.5,0,0.7,0.2,0.6,0.7
		c0,1.1,0,2.2,0,3.2c0,1.1,0,1.1,1.2,1.1c0.5,0,1.1,0,1.6,0c0.5,0,0.7,0.1,0.8,0.7c0.1,2.3,0.1,2.3-2.2,2.3c-1.4,0-1.4,0-1.4,1.4
		c0,2.3,0,4.7,0,7C313.9,82.6,314.4,83,316.4,83z M334,78.9c-3.4,0-6.9,0-10.3,0c-1.1,0-1.1,0.1-1.1,1.1c0.2,1.6,1,2.7,2.6,3.2
		c1.8,0.5,3.6,0.4,4.9-1.2c0.5-0.6,1-0.9,1.8-0.8c0.9,0.1,1.7,0,2.7,0c-1,2.8-2.7,4.7-5.4,5.2c-1.9,0.4-3.8,0.4-5.7-0.2
		c-2.2-0.7-3.7-2.1-4.6-4.2c-1.5-3.7-1.3-7.2,1.2-10.3c1.9-2.3,4.4-3,7.3-2.9c3.9,0.2,6.7,3.2,7.3,7.1c0.1,0.6,0.1,1.3,0.2,1.9
		C335.2,78.7,334.8,78.9,334,78.9z M348,69.9c-0.1,0.9,0,1.6,0,2.5c0,0.6-0.2,0.8-0.8,0.7c-1.1-0.1-2.3-0.1-3.4,0.6
		c-1,0.6-1.6,1.5-1.9,2.7c-0.1,0.9-0.3,1.8-0.3,2.7c-0.1,2.1-0.1,4.2,0,6.2c0,0.8-0.3,1.1-1.1,1c-0.9-0.1-1.9-0.1-2.7,0
		c-0.6,0-0.8-0.1-0.8-0.8c0-5.2,0-10.3,0-15.5c0-0.6,0.2-0.8,0.8-0.8c0.9,0,1.9,0,2.7,0c0.6,0,0.8,0.1,0.8,0.8c-0.1,0.7,0,1.4,0,2.2
		c0.1,0,0.1,0,0.2,0.1c0.3-0.4,0.6-0.8,0.9-1.2c1.1-1.4,2.7-2.1,4.4-2.2C347.6,68.8,348,69.1,348,69.9z"/>
	<path class="st0" d="M251.1,78.3c-0.4,0.1-0.9,0.2-1.3,0.4c-0.9,0.1-1.9,0.3-2.8,0.5c-0.9,0.2-1.6,0.7-1.8,1.8
		c-0.1,0.9-0.1,1.8,0.7,2.4c1.1,0.7,3.7,0.6,4.7-0.2c1.1-0.9,1.4-2.2,1.4-3.6c0-0.1,0-0.4,0-0.5C252.1,78,252.1,78,251.1,78.3z"/>
	<path class="st0" d="M326.7,72.2c-2.2,0-3.7,1.2-4,3.2c-0.1,0.6,0.1,0.8,0.6,0.8c1.1,0,2.2,0,3.2,0c1.1,0,2.2,0,3.2,0
		c0.4,0,0.8,0,0.6-0.6C329.9,73.7,329,72.1,326.7,72.2z"/>
</g>
</svg>
