<svg xmlns="http://www.w3.org/2000/svg" width="282" height="20" viewBox="0 0 282 20">
    <g fill="#000" fill-rule="evenodd">
        <path d="M139.037 6.119l-2.445 6.028h4.816l-2.37-6.028zM138.578 5h1.008L144 16h-1.096l-1.14-2.92h-5.556L135.022 16H134l4.578-11zM153.976 14.719h1.9c.654 0 1.263-.084 1.833-.253a4.125 4.125 0 0 0 1.481-.774c.42-.346.75-.787.993-1.322.243-.534.364-1.167.364-1.899s-.121-1.366-.364-1.9a3.624 3.624 0 0 0-.993-1.323 4.16 4.16 0 0 0-1.481-.773 6.447 6.447 0 0 0-1.832-.252h-1.901v8.496zm-.923-9.363h3.062c.858 0 1.584.108 2.18.325.597.217 1.093.494 1.49.831.396.337.708.71.936 1.12a5.54 5.54 0 0 1 .706 2.196c.028.303.043.518.043.643s-.015.34-.043.642a5.643 5.643 0 0 1-.706 2.197c-.228.41-.54.782-.936 1.12-.397.337-.893.614-1.49.83-.596.217-1.322.325-2.18.325h-3.062V5.356zM173.563 14.719h1.901c.653 0 1.263-.084 1.832-.253a4.125 4.125 0 0 0 1.482-.774c.42-.346.75-.787.993-1.322.242-.534.363-1.167.363-1.899s-.12-1.366-.363-1.9a3.624 3.624 0 0 0-.993-1.323 4.16 4.16 0 0 0-1.482-.773 6.447 6.447 0 0 0-1.832-.252h-1.901v8.496zm-.922-9.363h3.062c.857 0 1.584.108 2.18.325.597.217 1.093.494 1.49.831.395.337.707.71.936 1.12a5.54 5.54 0 0 1 .706 2.196c.028.303.042.518.042.643s-.014.34-.042.642a5.643 5.643 0 0 1-.706 2.197c-.229.41-.54.782-.937 1.12-.396.337-.892.614-1.489.83-.596.217-1.323.325-2.18.325h-3.062V5.356zM192.354 15.586h.922V5.356h-.922zM207.411 6.223h-3.384v-.867h7.69v.867h-3.383v9.362h-.923zM222.468 15.586h.923V5.356h-.923zM235.61 10.47c0 .636.099 1.23.294 1.777.196.55.475 1.027.839 1.432.364.404.805.721 1.321.953.518.23 1.098.347 1.741.347s1.224-.117 1.74-.347c.518-.232.958-.55 1.322-.953a4.25 4.25 0 0 0 .838-1.432 5.245 5.245 0 0 0 .295-1.776c0-.636-.099-1.229-.295-1.777a4.234 4.234 0 0 0-.838-1.43 3.886 3.886 0 0 0-1.322-.955c-.516-.23-1.097-.346-1.74-.346s-1.223.116-1.741.346c-.516.232-.957.55-1.321.955-.364.404-.643.88-.84 1.43a5.271 5.271 0 0 0-.293 1.777m-.922 0c0-.78.125-1.498.378-2.153.251-.655.6-1.221 1.048-1.698.447-.476.985-.85 1.615-1.12a5.21 5.21 0 0 1 2.076-.404c.755 0 1.447.135 2.077.404.628.27 1.166.644 1.614 1.12a5.145 5.145 0 0 1 1.048 1.698c.253.655.378 1.373.378 2.153s-.125 1.5-.378 2.16c-.25.66-.6 1.228-1.048 1.704a4.676 4.676 0 0 1-1.614 1.113 5.3 5.3 0 0 1-2.077.397 5.287 5.287 0 0 1-2.076-.397 4.65 4.65 0 0 1-1.615-1.113 5.124 5.124 0 0 1-1.048-1.705 5.995 5.995 0 0 1-.378-2.16M256.22 5.356h1.188l6.026 8.957h.027V5.356h.923v10.23h-1.189l-6.025-8.959h-.028v8.959h-.923zM276.59 13.692c.242.435.556.757.943.968.387.213.827.318 1.321.318.308 0 .596-.048.867-.144.27-.096.505-.232.706-.404.2-.174.36-.384.475-.629.117-.246.175-.523.175-.831 0-.356-.072-.65-.216-.881a1.758 1.758 0 0 0-.58-.57 4.182 4.182 0 0 0-.82-.383 44.526 44.526 0 0 0-.936-.318 9.955 9.955 0 0 1-.936-.362 3.154 3.154 0 0 1-.818-.527 2.342 2.342 0 0 1-.58-.816c-.144-.328-.217-.732-.217-1.214 0-.453.086-.854.259-1.207.172-.351.405-.645.698-.88a3.07 3.07 0 0 1 1.014-.535 3.97 3.97 0 0 1 1.203-.181c.54 0 1.041.1 1.503.296.461.198.86.527 1.195.99l-.797.592a2.375 2.375 0 0 0-.817-.758c-.313-.17-.684-.253-1.112-.253a2.94 2.94 0 0 0-.854.123c-.27.082-.505.202-.706.361-.2.16-.36.358-.481.6-.122.24-.182.525-.182.852 0 .51.125.903.378 1.178.25.274.566.491.943.65.378.159.788.299 1.23.418.443.121.853.282 1.23.485.378.201.693.483.944.845.252.361.378.86.378 1.495 0 .463-.085.872-.252 1.228a2.66 2.66 0 0 1-.678.903 2.865 2.865 0 0 1-.986.556c-.372.126-.76.188-1.16.188a4.515 4.515 0 0 1-1.803-.354c-.55-.235-1.021-.633-1.412-1.192l.88-.607z"/>
        <g>
            <path d="M7.231 10.587c-.479.446-1.476.467-2.354.636-.879.17-1.676.51-1.676 1.614s.818 1.4 1.736 1.4c2.215 0 2.294-1.846 2.294-2.525v-1.125zM.48 8.38C.64 5.544 3.045 4.662 5.39 4.662c2.081 0 4.586.495 4.586 3.159v5.781c0 1.01.101 2.02.364 2.471h-2.91A4.808 4.808 0 0 1 7.228 15c-.91 1.01-2.223 1.375-3.515 1.375-2.001 0-3.557-1.053-3.557-3.332.041-5.05 7.072-2.342 6.951-4.835 0-1.29-.848-1.505-1.859-1.505-1.11 0-1.798.473-1.9 1.676H.48zM19.678 10.502c0-1.762-.659-3.544-2.474-3.544-1.856 0-2.455 1.76-2.455 3.544 0 1.783.64 3.481 2.475 3.481 1.855 0 2.454-1.698 2.454-3.48M11.971 4.93h2.743v1.327h.04c.7-1.19 1.799-1.7 3.077-1.7 3.237 0 4.696 2.784 4.696 5.908 0 2.933-1.498 5.675-4.536 5.675-1.259 0-2.397-.573-3.097-1.657h-.18v5.305h-2.743V4.93M31.761 10.502c0-1.762-.659-3.544-2.474-3.544-1.857 0-2.455 1.76-2.455 3.544 0 1.783.638 3.481 2.474 3.481 1.856 0 2.455-1.698 2.455-3.48M24.193 4.93h2.494v1.327h.04c.7-1.19 1.799-1.7 3.077-1.7 3.238 0 4.696 2.784 4.696 5.908 0 2.933-1.498 5.675-4.536 5.675-1.258 0-2.398-.573-3.097-1.657h.07v5.305h-2.744V4.93M43.067 9.175c-.259-1.528-.877-2.334-2.255-2.334-1.835 0-2.295 1.485-2.355 2.334h4.61zM38.514 11.3c.078 1.886.916 2.715 2.475 2.715 1.111 0 2.008-.726 2.183-1.389h2.436c-.78 2.55-2.436 3.606-4.717 3.606-3.175 0-5.144-2.321-5.144-5.638 0-3.212 2.085-5.659 5.144-5.659 3.431 0 5.106 3.068 4.893 6.365h-7.372.102zM53.627 10.587c-.48.446-1.477.467-2.355.636-.878.17-1.676.51-1.676 1.614s.818 1.4 1.736 1.4c2.215 0 2.295-1.846 2.295-2.525v-1.125zM47.124 8.38c.161-2.835 2.566-3.717 4.91-3.717 2.08 0 4.587.495 4.587 3.159v5.781c0 1.01.1 2.02.363 2.471h-2.91A4.808 4.808 0 0 1 53.872 15c-.91 1.01-2.223 1.375-3.516 1.375-2 0-3.556-1.053-3.556-3.332.04-5.05 7.072-2.342 6.95-4.835 0-1.29-.847-1.505-1.858-1.505-1.112 0-1.798.473-1.9 1.676h-2.868zM58.616 4.93h2.744v2.124h-.1c.53-1.38 1.842-2.336 3.233-2.336.216 0 .412.043.608.107v2.802a4.622 4.622 0 0 0-.999-.108c-2.057 0-2.742 1.572-2.742 3.524v5.031h-2.744V4.93M70.838.42h5.238V2.81h-2.244V17.4h2.244v2.387h-5.238zM80.566 5.461h1.995v3.184h.025c.33-.69 1.173-1.12 1.931-1.12 2.114 0 2.285 1.642 2.285 2.618v4.34h-2.244v-3.861c0-.638-.192-1.159-.96-1.159-.72 0-1.037.7-1.037 1.413v3.607h-1.995V5.46M92.183 10.502c-.035-.752-.527-1.35-1.21-1.35-.718 0-1.184.535-1.317 1.35h2.527zm-2.559 1.327c.037.94.54 1.54 1.424 1.54.503 0 .994-.235 1.19-.745h1.952c-.394 1.568-1.743 2.247-3.166 2.247-2.075 0-3.485-1.333-3.485-3.603 0-2.076 1.558-3.564 3.435-3.564 2.282 0 3.424 1.828 3.326 4.125h-4.754.078zM95.283 7.849h1.746V8.91h.215c.291-.854.965-1.286 1.815-1.286.15 0 .313.012.465.051V9.65a2.247 2.247 0 0 0-.756-.127c-.977 0-1.49.739-1.49 1.567v3.393h-1.995V7.849M104.435 10.502c-.036-.752-.527-1.35-1.21-1.35-.717 0-1.184.535-1.317 1.35h2.527zm-2.559 1.327c.037.94.54 1.54 1.424 1.54.503 0 .994-.235 1.19-.745h1.95c-.392 1.568-1.742 2.247-3.164 2.247-2.074 0-3.487-1.333-3.487-3.603 0-2.076 1.56-3.564 3.436-3.564 2.283 0 3.424 1.828 3.326 4.125h-4.783.108zM114.989 19.788h-5.239v-2.387h2.494V2.808h-2.494V.42h5.239z"/>
        </g>
    </g>
</svg>
